<svg xmlns="http://www.w3.org/2000/svg" xmlns:xlink="http://www.w3.org/1999/xlink" xmlns:sketch="http://www.bohemiancoding.com/sketch/ns" viewBox="0 0 100 125" version="1.1" x="0px" y="0px"><title>icon-14</title><desc>Created with Sketch.</desc><g stroke="none" stroke-width="1" fill="none" fill-rule="evenodd" sketch:type="MSPage"><path d="M50.125,62.86 C49.09,62.86 48.25,63.7 48.25,64.735 L48.25,65.32 C48.25,66.35875 49.09,67.195 50.125,67.195 C51.16,67.195 52,66.35875 52,65.32 L52,64.735 C52,63.7 51.16,62.86 50.125,62.86 M50.095,33.055 C43.5625,33.055 38.245,38.3725 38.245,44.905 C38.245,45.94 39.085,46.78 40.12,46.78 C40.54375,46.78 40.915,46.615 41.23,46.375 C41.68375,46.03375 41.995,45.51625 41.995,44.905 C41.995,40.43875 45.62875,36.805 50.095,36.805 C52.45375,36.805 54.82,37.9 56.4325,39.73 C57.8275,41.32375 58.4575,43.26625 58.2025,45.20875 C57.8875,47.58625 56.035,48.895 53.8825,50.4175 C51.83875,51.86125 49.58125,53.485 48.64,56.215 C48.45625,56.7475 48.3025,57.31 48.23125,57.94 C48.115,58.9675 48.8575,59.89375 49.885,60.01 C49.95625,60.0175 50.0275,60.02125 50.09875,60.02125 C51.04,60.02125 51.85,59.31625 51.95875,58.35625 C52.19125,56.30125 53.665,55.16125 56.05,53.4775 C58.555,51.7075 61.39375,49.70125 61.91875,45.7 C62.31625,42.67 61.3675,39.67 59.24875,37.25875 C56.93875,34.62625 53.51875,33.055 50.095,33.055 M50.125,22 C34.615,22 22,34.61875 22,50.125 C22,65.635 34.615,78.25 50.125,78.25 C65.635,78.25 78.25,65.635 78.25,50.125 C78.25,34.61875 65.635,22 50.125,22" fill="#000000" sketch:type="MSShapeGroup"/></g></svg>